<svg width="1180" height="190" viewBox="0 0 1180 190" fill="none" xmlns="http://www.w3.org/2000/svg">
  <g>
    <path
      d="M51.5 41.6C102.6 37.9 152.5 43.6 203.3 40.6C267.4 36.8 331.3 40.1 395.3 39.2C460.6 38.3 525.6 41.4 590.8 40.1C656.2 38.8 721.4 39.4 786.8 40.3C853.8 41.2 921.1 36.3 987.9 39.8C1037.4 42.4 1085.4 39.4 1128.3 42.1C1133.5 49.8 1134.7 63.7 1134.1 80.8C1133.3 104.1 1137 124.5 1130.3 144.1C1060.9 146.7 989.7 143.9 920.3 146.2C851.7 148.5 784.2 145.9 715.4 147.2C645 148.5 575.4 144.6 505.4 146.5C440.6 148.3 376.4 143.9 311.6 146.4C244.5 149 177.7 146.8 110.6 148.3C90.6 148.8 66.4 147.4 51.1 143.7C45.9 126.8 49.1 107.9 47.2 89.2C45.7 73.7 46.5 55.9 51.5 41.6Z"
      fill="#FAFAF7"
    />
    <path
      d="M52.4 42.8C112.2 39.8 172.5 43.1 232.1 41.1C303.7 38.7 375.5 40.6 447.2 40C523.6 39.3 600 41.7 676.2 40.2C747.5 38.8 819.2 41.7 890.7 40C967.3 38.2 1048.3 37.6 1127.3 43.2"
      stroke="#ffffff"
      stroke-width="4"
      stroke-linecap="round"
      opacity=".75"
    />
    <path
      d="M52.1 143.3C118.7 151.1 189.2 145.2 257.1 147.1C327.6 149 398.9 143.5 469.2 146.4C542.7 149.4 616.5 144.2 689.8 147.4C766.5 150.7 844.2 143.7 921.2 146C990.1 148.1 1061.2 143.1 1129.1 144.2"
      stroke="#dfded8"
      stroke-width="2"
      stroke-linecap="round"
      opacity=".9"
    />
  </g>

</svg>
